<?xml version="1.0" standalone="no"?>
<!DOCTYPE svg PUBLIC "-//W3C//DTD SVG 20010904//EN"
 "http://www.w3.org/TR/2001/REC-SVG-20010904/DTD/svg10.dtd">
<svg version="1.0" xmlns="http://www.w3.org/2000/svg"
 width="512.000000pt" height="512.000000pt" viewBox="0 0 512.000000 512.000000"
 preserveAspectRatio="xMidYMid meet">
<metadata>
Created by potrace 1.11, written by Peter Selinger 2001-2013
</metadata>
<g transform="translate(0.000000,512.000000) scale(0.100000,-0.100000)"
fill="#000000" stroke="none">
<path d="M2315 5109 c-556 -57 -1079 -290 -1476 -657 -454 -418 -720 -922
-816 -1542 -21 -142 -25 -528 -5 -665 59 -415 188 -761 406 -1095 178 -272
455 -548 726 -726 334 -218 683 -347 1095 -406 118 -17 512 -17 630 0 598 85
1094 331 1502 743 404 409 641 894 725 1484 17 118 17 512 0 630 -96 677 -410
1242 -927 1671 -343 284 -783 476 -1255 549 -126 19 -477 28 -605 14z m472
-754 c399 -52 742 -218 1032 -500 256 -249 422 -540 505 -887 l6 -28 -389 0
-389 0 -43 87 c-131 265 -370 465 -652 547 -79 23 -216 46 -274 46 l-23 0 0
-1061 0 -1061 78 7 c392 35 716 259 880 607 l37 78 388 0 389 0 -7 -32 c-50
-231 -169 -487 -320 -687 -89 -117 -270 -295 -385 -378 -648 -464 -1514 -455
-2150 23 -115 87 -293 268 -376 384 -465 645 -456 1515 23 2150 87 116 269
295 383 377 374 268 838 386 1287 328z"/>
</g>
</svg>
